<?xml version="1.0" encoding="UTF-8"?>
<svg width="167px" height="27px" viewBox="0 0 167 27" version="1.1" xmlns="http://www.w3.org/2000/svg" xmlns:xlink="http://www.w3.org/1999/xlink">
    <!-- Generator: Sketch 51.1 (57501) - http://www.bohemiancoding.com/sketch -->
    <title>logo</title>
    <desc>Created with Sketch.</desc>
    <defs></defs>
    <g id="Design" stroke="none" stroke-width="1" fill="none" fill-rule="evenodd">
        <g id="01_Homepage" transform="translate(-652.000000, -62.000000)" fill="#FFFFFF">
            <g id="nav" transform="translate(75.000000, 62.000000)">
                <g id="logo" transform="translate(577.000000, 0.000000)">
                    <rect id="dash--character" x="144" y="23" width="22" height="3"></rect>
                    <path d="M161.1525,15.361 C157.5425,15.361 155.5095,12.853 155.5095,8.35 C155.5095,3.847 157.5425,1.339 161.1525,1.339 C164.7815,1.339 166.8145,3.847 166.8145,8.35 C166.8145,12.853 164.7815,15.361 161.1525,15.361 Z M161.1525,12.72 C162.8815,12.72 163.7365,11.238 163.7365,8.35 C163.7365,5.462 162.8815,3.98 161.1525,3.98 C159.4425,3.98 158.5685,5.462 158.5685,8.35 C158.5685,11.238 159.4425,12.72 161.1525,12.72 Z" id="o--character"></path>
                    <path d="M148.8385,15.361 C145.2475,15.361 143.3855,12.796 143.3855,8.35 C143.3855,3.904 145.2475,1.339 148.8385,1.339 C152.0115,1.339 153.7405,3.144 153.8925,6.488 L150.8335,6.488 C150.7195,4.797 150.1685,3.942 148.8385,3.942 C147.1475,3.942 146.4445,5.443 146.4445,8.35 C146.4445,11.257 147.1475,12.758 148.8385,12.758 C150.1685,12.758 150.7195,11.903 150.8335,10.212 L153.8925,10.212 C153.7405,13.556 152.0115,15.361 148.8385,15.361 Z" id="c--character"></path>
                    <path d="M118.103765,0.8 L126.095765,0.8 C132.791765,0.8 136.823765,5.696 136.823765,13.4 C136.823765,20.96 132.719765,26 125.843765,26 L118.103765,26 L118.103765,0.8 Z M125.843765,21.284 C129.155765,21.284 131.099765,18.8 131.099765,13.4 C131.099765,8 129.155765,5.516 125.843765,5.516 L123.647765,5.516 L123.647765,21.284 L125.843765,21.284 Z" id="d--character"></path>
                    <polygon id="l--character" points="101.209177 0.8 106.753177 0.8 106.753177 21.032 113.773177 21.032 113.773177 26 101.209177 26"></polygon>
                    <polygon id="e--character" points="83.0905884 0.8 96.4465884 0.8 96.4465884 5.3 88.6345884 5.3 88.6345884 11.204 96.4465884 11.204 96.4465884 15.596 88.6345884 15.596 88.6345884 21.5 96.4465884 21.5 96.4465884 26 83.0905884 26"></polygon>
                    <polygon id="i--character__second" points="72.46 0.8 78.004 0.8 78.004 26 72.46 26"></polygon>
                    <polygon id="f--character" points="55.0614116 0.8 67.9854116 0.8 67.9854116 5.516 60.6414116 5.516 60.6414116 12.212 67.9854116 12.212 67.9854116 17.036 60.6414116 17.036 60.6414116 26 55.0614116 26"></polygon>
                    <path d="M51.4508232,17.144 L50.1548232,17.144 C49.8668232,23.372 46.4828232,26.684 40.8668232,26.684 C34.2068232,26.684 30.4628232,21.752 30.4628232,13.256 C30.4628232,5.084 34.2788232,0.116 40.9028232,0.116 C46.8428232,0.116 49.9028232,3.176 50.1908232,8.576 L44.5748232,8.576 C44.3948232,6.056 43.2428232,4.832 40.9028232,4.832 C37.7348232,4.832 36.2588232,7.568 36.2588232,13.148 C36.2588232,19.268 37.7348232,21.932 41.0828232,21.932 C43.4588232,21.932 44.8628232,20.312 44.8988232,17.144 L40.7228232,17.144 L40.7228232,12.86 L51.4508232,12.86 L51.4508232,17.144 Z" id="g--character"></path>
                    <polygon id="i--character__first" points="21.0562348 0.8 26.6002348 0.8 26.6002348 26 21.0562348 26"></polygon>
                    <path d="M11.8296464,13.112 C14.8536464,13.436 16.9776464,15.704 16.9776464,19.016 C16.9776464,23.408 13.8816464,26 8.66164641,26 L0.0936464081,26 L0.0936464081,0.8 L8.66164641,0.8 C13.6656464,0.8 16.6176464,3.248 16.6176464,7.352 C16.6176464,10.484 14.8536464,12.464 11.8296464,13.112 Z M5.63764641,4.796 L5.63764641,11.204 L7.65364641,11.204 C9.81364641,11.204 11.0376464,10.016 11.0376464,8 C11.0376464,5.912 9.92164641,4.796 7.72564641,4.796 L5.63764641,4.796 Z M7.72564641,21.824 C10.1736464,21.824 11.3256464,20.708 11.3256464,18.404 C11.3256464,16.424 10.0656464,15.128 8.12164641,15.128 L5.63764641,15.128 L5.63764641,21.824 L7.72564641,21.824 Z" id="b--character"></path>
                </g>
            </g>
        </g>
    </g>
</svg>