<?xml version="1.0" encoding="UTF-8"?>
<svg width="45px" height="45px" viewBox="0 0 45 45" version="1.1" xmlns="http://www.w3.org/2000/svg" xmlns:xlink="http://www.w3.org/1999/xlink">
    <!-- Generator: Sketch 51.1 (57501) - http://www.bohemiancoding.com/sketch -->
    <title>icon--social__twittermdpi/</title>
    <desc>Created with Sketch.</desc>
    <defs></defs>
    <g id="Design" stroke="none" stroke-width="1" fill="none" fill-rule="evenodd">
        <g id="01_Homepage" transform="translate(-698.000000, -4387.000000)" fill="#FFFFFF">
            <g id="footer" transform="translate(0.000000, 4200.000000)">
                <g id="icon--social__twitter" transform="translate(698.000000, 187.000000)">
                    <path d="M22.5,42 C33.27,42 42,33.27 42,22.5 C42,11.73 33.27,3 22.5,3 C11.73,3 3,11.73 3,22.5 C3,33.27 11.73,42 22.5,42 M22.5,45 C10.074,45 0,34.926 0,22.5 C0,10.074 10.074,0 22.5,0 C34.926,0 45,10.074 45,22.5 C45,34.926 34.926,45 22.5,45" id="Page-1"></path>
                    <path d="M33.877875,13.82625 C32.98575,14.355 31.998,14.72625 30.94725,14.94 C30.10575,14.05125 28.905375,13.5 27.577875,13.5 C25.028625,13.5 22.962,15.53625 22.962,18.045 C22.962,18.39375 23.001375,18.7425 23.080125,19.08 C19.243875,18.88875 15.843,17.0775 13.566,14.3325 C13.168875,15.0075 12.941625,15.78375 12.941625,16.61625 C12.941625,18.19125 13.755,19.58625 14.99475,20.39625 C14.23875,20.37375 13.526625,20.17125 12.9045,19.8225 C12.903375,19.845 12.903375,19.8675 12.903375,19.89 C12.903375,22.08375 14.49525,23.9175 16.606875,24.345 C16.21875,24.44625 15.812625,24.5025 15.39075,24.5025 C15.09375,24.5025 14.8035,24.46875 14.52225,24.4125 C15.1095,26.22375 16.813875,27.54 18.83325,27.57375 C17.25375,28.78875 15.263625,29.52 13.10025,29.52 C12.727875,29.52 12.361125,29.4975 12,29.4525 C14.043,30.74625 16.469625,31.5 19.07625,31.5 C27.56775,31.5 32.210625,24.57 32.210625,18.57375 C32.210625,18.37125 32.206125,18.18 32.197125,17.9775 C33.09825,17.33625 33.880125,16.5375 34.5,15.62625 C33.672,15.98625 32.78325,16.23375 31.848375,16.34625 C32.80125,15.78375 33.5325,14.895 33.877875,13.82625 L33.877875,13.82625 Z" id="Path"></path>
                </g>
            </g>
        </g>
    </g>
</svg>