<?xml version="1.0" encoding="UTF-8"?>
<svg width="45px" height="45px" viewBox="0 0 45 45" version="1.1" xmlns="http://www.w3.org/2000/svg" xmlns:xlink="http://www.w3.org/1999/xlink">
    <!-- Generator: Sketch 51.1 (57501) - http://www.bohemiancoding.com/sketch -->
    <title>icon--social__instagram</title>
    <desc>Created with Sketch.</desc>
    <defs></defs>
    <g id="Design" stroke="none" stroke-width="1" fill="none" fill-rule="evenodd">
        <g id="01_Homepage" transform="translate(-788.000000, -4387.000000)" fill="#FFFFFF">
            <g id="footer" transform="translate(0.000000, 4200.000000)">
                <g id="icon--social__instagram" transform="translate(788.000000, 187.000000)">
                    <path d="M22.5,42 C33.27,42 42,33.27 42,22.5 C42,11.73 33.27,3 22.5,3 C11.73,3 3,11.73 3,22.5 C3,33.27 11.73,42 22.5,42 M22.5,45 C10.074,45 0,34.926 0,22.5 C0,10.074 10.074,0 22.5,0 C34.926,0 45,10.074 45,22.5 C45,34.926 34.926,45 22.5,45" id="Page-1"></path>
                    <path d="M30.9,28.8 C30.9,29.955 29.9592,30.9 28.8,30.9 L16.2,30.9 C15.03975,30.9 14.1,29.955 14.1,28.8 L14.1,21.45 L16.305,21.45 C16.2483,21.786 16.2,22.143 16.2,22.5 C16.2,25.9755 19.0203,28.8 22.5,28.8 C25.97865,28.8 28.8,25.9755 28.8,22.5 C28.8,22.143 28.75275,21.786 28.69395,21.45 L30.9,21.45 L30.9,28.8 Z M22.5,18.3 C24.81945,18.3 26.7,20.1795 26.7,22.5 C26.7,24.8205 24.81945,26.7 22.5,26.7 C20.18055,26.7 18.3,24.8205 18.3,22.5 C18.3,20.1795 20.18055,18.3 22.5,18.3 Z M26.7,18.3 L29.85,18.3 L29.85,15.15 L26.7,15.15 L26.7,18.3 Z M28.8,12 L16.2,12 C13.88055,12 12,13.8795 12,16.2 L12,28.8 C12,31.1205 13.88055,33 16.2,33 L28.8,33 C31.11945,33 33,31.1205 33,28.8 L33,16.2 C33,13.8795 31.11945,12 28.8,12 Z" id="Fill-260"></path>
                </g>
            </g>
        </g>
    </g>
</svg>